<svg xmlns="http://www.w3.org/2000/svg" viewBox="0 0 50 50" preserveAspectRatio="xMidYMid meet"><path fill="#545454" d="M19 1L25 7L19 13L13 7ZM37 7L31 13L25 7L31 1ZM31 49L25 43L31 37L37 43ZM13 43L19 37L25 43L19 49ZM7 13L13 19L7 25L1 19ZM49 19L43 25L37 19L43 13ZM43 37L37 31L43 25L49 31ZM1 31L7 25L13 31L7 37Z"/><path fill="#ae75d1" d="M1 7L7 1L13 7L7 13ZM43 1L49 7L43 13L37 7ZM49 43L43 49L37 43L43 37ZM7 49L1 43L7 37L13 43Z"/><path fill="#e8e8e8" d="M13 13L25 13L25 25L13 25ZM16 20.5L20.5 25L25 20.5L20.5 16ZM37 13L37 25L25 25L25 13ZM29.5 16L25 20.5L29.5 25L34 20.5ZM37 37L25 37L25 25L37 25ZM34 29.5L29.5 25L25 29.5L29.5 34ZM13 37L13 25L25 25L25 37ZM20.5 34L25 29.5L20.5 25L16 29.5Z"/></svg>