<svg xmlns="http://www.w3.org/2000/svg" viewBox="0 0 50 50" preserveAspectRatio="xMidYMid meet"><path fill="#d175cb" d="M15 7a4,4 0 1,1 8,0a4,4 0 1,1 -8,0M27 7a4,4 0 1,1 8,0a4,4 0 1,1 -8,0M27 43a4,4 0 1,1 8,0a4,4 0 1,1 -8,0M15 43a4,4 0 1,1 8,0a4,4 0 1,1 -8,0M3 19a4,4 0 1,1 8,0a4,4 0 1,1 -8,0M39 19a4,4 0 1,1 8,0a4,4 0 1,1 -8,0M39 31a4,4 0 1,1 8,0a4,4 0 1,1 -8,0M3 31a4,4 0 1,1 8,0a4,4 0 1,1 -8,0M13 13L25 13L25 14.9L20 25L13 25ZM37 13L37 25L35.1 25L25 20L25 13ZM37 37L25 37L25 35.1L30 25L37 25ZM13 37L13 25L14.9 25L25 30L25 37Z"/><path fill="#545454" d="M1 1L13 1L13 7ZM49 1L49 13L43 13ZM49 49L37 49L37 43ZM1 49L1 37L7 37Z"/></svg>