<svg width="64" height="64" xmlns="http://www.w3.org/2000/svg" viewBox="0 0 105 98.44">
<path d="M105,53.66A53.1,53.1,0,0,1,.13,53.84a11.35,11.35,0,0,0,7.6,2.91h0a11.37,11.37,0,0,0,8.07-3.34A37.5,37.5,0,0,0,23,68.6c.21.26.42.53.64.79a37.7,37.7,0,0,0,6.19,5.92,37.58,37.58,0,0,0,51.66-6c.24-.28.48-.57.71-.86a37.62,37.62,0,0,0,7.06-14.95,11.32,11.32,0,0,0,7.91,3.21h0A11.36,11.36,0,0,0,105,53.66Z"/>
<path d="M104.94,45.35a7.75,7.75,0,0,1-7.75,7.75h0a7.75,7.75,0,0,1-6.08-3A7.67,7.67,0,0,1,90,48.32h0a7.65,7.65,0,0,1,0-5.94h0a7.74,7.74,0,0,1,13.24-1.81A7.71,7.71,0,0,1,104.94,45.35Z"/>
<path d="M15.49,45.35A7.5,7.5,0,0,1,15,48h0A7.74,7.74,0,0,1,7.75,53.1h0A7.75,7.75,0,1,1,15,42.73h0A7.59,7.59,0,0,1,15.49,45.35Z"/>
<path d="M21.91,11.94l-.06-.1h0Z"/>
<path d="M78.7,19,63.61,42.49a11.39,11.39,0,0,0-9.08-8.38h0a11.17,11.17,0,0,0-1.93-.16,10.8,10.8,0,0,0-1.72.13l-.25,0a11.39,11.39,0,0,0-9.08,8.38L26.43,19a8.54,8.54,0,0,0,1.25.15q.36,0,.72,0h0c.34,0,.66,0,1,0a11.47,11.47,0,0,0,10.06-8.48l13.1,20.41,13.09-20.4A11.38,11.38,0,0,0,76,19.13q.36,0,.72,0h0c.34,0,.66,0,1,0S78.37,19,78.7,19Z"/>
<path d="M84.44,7.75a7.46,7.46,0,0,1-.09,1.16,7.71,7.71,0,0,1-1.07,2.92c-.16.25-.32.48-.5.71a7.72,7.72,0,0,1-5.42,2.92c-.22,0-.44,0-.67,0h-.5a7.73,7.73,0,0,1-7.13-6.42A7,7,0,0,1,69,7.75c0-.23,0-.45,0-.67a8.08,8.08,0,0,1,.86-2.94,7.79,7.79,0,0,1,5.7-4A7.46,7.46,0,0,1,76.69,0,8.2,8.2,0,0,1,78,.11a7.76,7.76,0,0,1,6.41,7.13C84.43,7.41,84.44,7.58,84.44,7.75Z"/>
<path d="M36.17,7.75a7.46,7.46,0,0,1-.09,1.16,7.73,7.73,0,0,1-7,6.55c-.22,0-.44,0-.67,0h-.5a7.77,7.77,0,0,1-5.59-2.94c-.14-.19-.28-.38-.41-.58v0l-.06-.1a7.62,7.62,0,0,1-1.06-2.78,7,7,0,0,1-.11-1.31c0-.23,0-.45,0-.67a7.72,7.72,0,0,1,6.55-7A7.46,7.46,0,0,1,28.42,0a8.2,8.2,0,0,1,1.32.11A7.7,7.7,0,0,1,34.51,3a7.48,7.48,0,0,1,.75,1.14,7.56,7.56,0,0,1,.89,3.14C36.16,7.41,36.17,7.58,36.17,7.75Z"/>
<path d="M21.91,11.94l-.06-.1h0Z"/>
<path d="M60.31,45.35a7.27,7.27,0,0,1-.09,1.16,7.62,7.62,0,0,1-1.16,3.07c-.13.19-.26.38-.4.56a7.78,7.78,0,0,1-5.43,2.93q-.33,0-.66,0h0l-.49,0a7.72,7.72,0,0,1-5.58-2.94c-.15-.18-.28-.37-.41-.56a7.82,7.82,0,0,1-1.14-2.92,8,8,0,0,1-.11-1.31c0-.23,0-.45,0-.67a7.52,7.52,0,0,1,.81-2.84,1.14,1.14,0,0,1,.1-.19h0l.59-.93h0l.12-.16a7.74,7.74,0,0,1,4.92-2.87,7.49,7.49,0,0,1,1.17-.09,8.17,8.17,0,0,1,1.31.11,7.8,7.8,0,0,1,4.78,2.85l.12.17.58.91a1.28,1.28,0,0,1,.11.2,7.62,7.62,0,0,1,.83,3C60.31,45,60.31,45.18,60.31,45.35Z"/>
<path d="M25.86,18.86h0c-.78.78-1.52,1.59-2.22,2.44-.33.4-.65.79-1,1.2a37.3,37.3,0,0,0-6.86,14.78A11.4,11.4,0,0,0,.13,36.86,53,53,0,0,1,11.65,11.49a53.72,53.72,0,0,1,5.54-5.75h0a11.05,11.05,0,0,0-.18,2A11.4,11.4,0,0,0,23.64,18.1,10.58,10.58,0,0,0,25.86,18.86Z"/>
<path d="M105,37a11.38,11.38,0,0,0-15.74.12,37.29,37.29,0,0,0-6.75-14.53c-.33-.44-.67-.87-1-1.28-.71-.86-1.46-1.69-2.24-2.48h0a12.4,12.4,0,0,0,2-.65l.24-.11a5.08,5.08,0,0,0,.47-.23l.23-.12.5-.29.06,0,.19-.12.24-.16a11.38,11.38,0,0,0,5-9.4,11.88,11.88,0,0,0-.17-2A53.24,53.24,0,0,1,105,37Z"/>
</svg>
