<svg xmlns="http://www.w3.org/2000/svg" width="64" height="64" viewBox="0 0 125.56 125.84">
<defs>
<linearGradient id="electronic-label-gradient-1" x1="51.59" y1="128.55" x2="72.77" y2="70.34" gradientUnits="userSpaceOnUse">
<stop offset="0.39" stop-color="#0043ec"/>
<stop offset="0.49" stop-color="#0049ec"/>
<stop offset="0.61" stop-color="#0059ec"/>
<stop offset="0.76" stop-color="#0073ec"/>
<stop offset="0.91" stop-color="#0098ec"/>
<stop offset="1.00" stop-color="#00b2ec"/>
</linearGradient>
<linearGradient id="electronic-label-gradient-2" x1="15.84" y1="102.12" x2="45.75" y2="19.94" gradientUnits="userSpaceOnUse">
<stop offset="0.30" stop-color="#0043ec"/>
<stop offset="0.71" stop-color="#00acec"/>
<stop offset="1.00" stop-color="#00b2ec"/>
</linearGradient>
<linearGradient id="electronic-label-gradient-3" x1="87.06" y1="76.89" x2="87.06" y2="0.35" gradientUnits="userSpaceOnUse">
<stop offset="0.25" stop-color="#fc4f02"/>
<stop offset="0.43" stop-color="#fc5203"/>
<stop offset="0.58" stop-color="#fc5c06"/>
<stop offset="0.72" stop-color="#fb6d0a"/>
<stop offset="0.85" stop-color="#fa8511"/>
<stop offset="0.98" stop-color="#f9a319"/>
<stop offset="1.00" stop-color="#f9aa1b"/>
</linearGradient>
</defs>

<path fill="url(#electronic-label-gradient-1)" d="M61.52,110.92,47.69,97.09,65.06,79.73,60.5,67.2,21.11,106.59l4.56,12.53,13.48-13.48,18.09,18.08a6,6,0,0,0,8.51,0l41-41L94.28,78.16Z"/>
<path fill="url(#electronic-label-gradient-2)" d="M56.61,56.5l-1.72-4.76L28.62,78,14.76,64.18,47.49,31.46l-.68-1.87h0l-.3-.84h0l-3.58-9.84L3.54,58.32h0L2,59.91l-.1.11A6.05,6.05,0,0,0,2,68.45L20.08,86.58l-4.59,4.59L20,103.6l.06.06L59.45,64.3Z"/>
<path fill="url(#electronic-label-gradient-3)" d="M119.58.35H64L61.88.76a6,6,0,0,0-2.13,1.36l-11,11,4.56,12.52,13.2-13.2h46.76V59.15L100.08,72.33l12.53,4.56,11-11A5.94,5.94,0,0,0,125,63.75a6.16,6.16,0,0,0,.38-2.12V6.05a6,6,0,0,0-5.73-5.7Z"/>
<circle fill="#fd7213" cx="89.21" cy="36.71" r="6.34"/>
</svg>
