<svg xmlns="http://www.w3.org/2000/svg" viewBox="0 0 50 50" preserveAspectRatio="xMidYMid meet"><path fill="#c1d3ea" d="M19 13L13 7L19 1L25 7ZM25 7L31 1L37 7L31 13ZM31 37L37 43L31 49L25 43ZM25 43L19 49L13 43L19 37ZM7 25L1 19L7 13L13 19ZM37 19L43 13L49 19L43 25ZM43 25L49 31L43 37L37 31ZM13 31L7 37L1 31L7 25Z"/><path fill="#84a7d6" d="M1 1L13 1L13 13ZM49 1L49 13L37 13ZM49 49L37 49L37 37ZM1 49L1 37L13 37Z"/><path fill="#3d71b7" d="M13 13L25 13L25 25L13 25ZM17.3 20.4a3.1,3.1 0 1,0 6.2,0a3.1,3.1 0 1,0 -6.2,0M37 13L37 25L25 25L25 13ZM26.4 20.4a3.1,3.1 0 1,0 6.2,0a3.1,3.1 0 1,0 -6.2,0M37 37L25 37L25 25L37 25ZM26.4 29.6a3.1,3.1 0 1,0 6.2,0a3.1,3.1 0 1,0 -6.2,0M13 37L13 25L25 25L25 37ZM17.3 29.6a3.1,3.1 0 1,0 6.2,0a3.1,3.1 0 1,0 -6.2,0"/></svg>