<svg xmlns="http://www.w3.org/2000/svg" viewBox="0 0 50 50" preserveAspectRatio="xMidYMid meet"><path fill="#e8e8e8" d="M25 7L19 13L13 7L19 1ZM31 13L25 7L31 1L37 7ZM25 43L31 37L37 43L31 49ZM19 37L25 43L19 49L13 43ZM13 19L7 25L1 19L7 13ZM43 25L37 19L43 13L49 19ZM37 31L43 25L49 31L43 37ZM7 25L13 31L7 37L1 31Z"/><path fill="#d1759a" d="M1 1L13 1L13 7ZM49 1L49 13L43 13ZM49 49L37 49L37 43ZM1 49L1 37L7 37Z"/><path fill="#a83865" d="M13 13L25 13L25 25L13 25ZM17 24L24 24L24 17L17 17ZM37 13L37 25L25 25L25 13ZM26 17L26 24L33 24L33 17ZM37 37L25 37L25 25L37 25ZM33 26L26 26L26 33L33 33ZM13 37L13 25L25 25L25 37ZM24 33L24 26L17 26L17 33Z"/></svg>