<svg xmlns="http://www.w3.org/2000/svg" viewBox="0 0 50 50" preserveAspectRatio="xMidYMid meet"><path fill="#a86538" d="M25 13L13 13L13 1ZM25 13L25 1L37 1ZM25 37L37 37L37 49ZM25 37L25 49L13 49ZM13 25L1 25L1 13ZM37 25L37 13L49 13ZM37 25L49 25L49 37ZM13 25L13 37L1 37Z"/><path fill="#e8ccba" d="M1 1L13 1L13 13ZM49 1L49 13L37 13ZM49 49L37 49L37 37ZM1 49L1 37L13 37Z"/><path fill="#d19a75" d="M13 13L25 13L25 25L13 25ZM17 24L24 24L24 17L17 17ZM37 13L37 25L25 25L25 13ZM26 17L26 24L33 24L33 17ZM37 37L25 37L25 25L37 25ZM33 26L26 26L26 33L33 33ZM13 37L13 25L25 25L25 37ZM24 33L24 26L17 26L17 33Z"/></svg>