<svg xmlns="http://www.w3.org/2000/svg" viewBox="0 0 50 50" preserveAspectRatio="xMidYMid meet"><path fill="#bfe5b2" d="M19 1L25 7L19 13L13 7ZM37 7L31 13L25 7L31 1ZM31 49L25 43L31 37L37 43ZM13 43L19 37L25 43L19 49ZM7 13L13 19L7 25L1 19ZM49 19L43 25L37 19L43 13ZM43 37L37 31L43 25L49 31ZM1 31L7 25L13 31L7 37Z"/><path fill="#7fcc66" d="M3 7a4,4 0 1,1 8,0a4,4 0 1,1 -8,0M39 7a4,4 0 1,1 8,0a4,4 0 1,1 -8,0M39 43a4,4 0 1,1 8,0a4,4 0 1,1 -8,0M3 43a4,4 0 1,1 8,0a4,4 0 1,1 -8,0"/><path fill="#4c4c4c" d="M17.8 25a7.2,7.2 0 1,1 14.4,0a7.2,7.2 0 1,1 -14.4,0"/></svg>