<svg xmlns="http://www.w3.org/2000/svg" viewBox="0 0 50 50" preserveAspectRatio="xMidYMid meet"><path fill="#e0bae8" d="M25 13L13 13L13 1ZM25 13L25 1L37 1ZM25 37L37 37L37 49ZM25 37L25 49L13 49ZM13 25L1 25L1 13ZM37 25L37 13L49 13ZM37 25L49 25L49 37ZM13 25L13 37L1 37Z"/><path fill="#545454" d="M7 13L1 7L7 1L13 7ZM37 7L43 1L49 7L43 13ZM43 37L49 43L43 49L37 43ZM13 43L7 49L1 43L7 37Z"/><path fill="#c175d1" d="M13 13L25 13L25 25L13 25ZM16 20.5L20.5 25L25 20.5L20.5 16ZM37 13L37 25L25 25L25 13ZM29.5 16L25 20.5L29.5 25L34 20.5ZM37 37L25 37L25 25L37 25ZM34 29.5L29.5 25L25 29.5L29.5 34ZM13 37L13 25L25 25L25 37ZM20.5 34L25 29.5L20.5 25L16 29.5Z"/></svg>