<svg xmlns="http://www.w3.org/2000/svg" viewBox="0 0 50 50" preserveAspectRatio="xMidYMid meet"><path fill="#c3c1ea" d="M13 7L19 1L25 7L19 13ZM31 1L37 7L31 13L25 7ZM37 43L31 49L25 43L31 37ZM19 49L13 43L19 37L25 43ZM1 19L7 13L13 19L7 25ZM43 13L49 19L43 25L37 19ZM49 31L43 37L37 31L43 25ZM7 37L1 31L7 25L13 31Z"/><path fill="#8784d6" d="M13 1L13 13L7 13ZM49 13L37 13L37 7ZM37 49L37 37L43 37ZM1 37L13 37L13 43ZM13 13L25 13L25 19L13 19ZM13 19L19 19L19 25L13 25ZM25 19L19 25L19 19ZM37 13L37 25L31 25L31 13ZM31 13L31 19L25 19L25 13ZM31 25L25 19L31 19ZM37 37L25 37L25 31L37 31ZM37 31L31 31L31 25L37 25ZM25 31L31 25L31 31ZM13 37L13 25L19 25L19 37ZM19 37L19 31L25 31L25 37ZM19 25L25 31L19 31Z"/></svg>