<svg xmlns="http://www.w3.org/2000/svg" viewBox="0 0 50 50" preserveAspectRatio="xMidYMid meet"><path fill="#e8e8e8" d="M25 1L25 13L13 13ZM37 13L25 13L25 1ZM25 49L25 37L37 37ZM13 37L25 37L25 49ZM13 13L13 25L1 25ZM49 25L37 25L37 13ZM37 37L37 25L49 25ZM1 25L13 25L13 37Z"/><path fill="#545454" d="M13 13L1 13L1 1ZM37 13L37 1L49 1ZM37 37L49 37L49 49ZM13 37L13 49L1 49Z"/><path fill="#ad75d1" d="M13 13L25 13L25 25L13 25ZM17.3 20.4a3.1,3.1 0 1,0 6.2,0a3.1,3.1 0 1,0 -6.2,0M37 13L37 25L25 25L25 13ZM26.4 20.4a3.1,3.1 0 1,0 6.2,0a3.1,3.1 0 1,0 -6.2,0M37 37L25 37L25 25L37 25ZM26.4 29.6a3.1,3.1 0 1,0 6.2,0a3.1,3.1 0 1,0 -6.2,0M13 37L13 25L25 25L25 37ZM17.3 29.6a3.1,3.1 0 1,0 6.2,0a3.1,3.1 0 1,0 -6.2,0"/></svg>