<svg xmlns="http://www.w3.org/2000/svg" viewBox="0 0 50 50" preserveAspectRatio="xMidYMid meet"><path fill="#545454" d="M25 7L19 13L13 7L19 1ZM31 13L25 7L31 1L37 7ZM25 43L31 37L37 43L31 49ZM19 37L25 43L19 49L13 43ZM13 19L7 25L1 19L7 13ZM43 25L37 19L43 13L49 19ZM37 31L43 25L49 31L43 37ZM7 25L13 31L7 37L1 31Z"/><path fill="#d19f75" d="M13 1L13 13L1 13ZM49 13L37 13L37 1ZM37 49L37 37L49 37ZM1 37L13 37L13 49Z"/><path fill="#e8e8e8" d="M13 13L25 13L25 14.9L20 25L13 25ZM37 13L37 25L35.1 25L25 20L25 13ZM37 37L25 37L25 35.1L30 25L37 25ZM13 37L13 25L14.9 25L25 30L25 37Z"/></svg>