<svg xmlns="http://www.w3.org/2000/svg" viewBox="0 0 50 50" preserveAspectRatio="xMidYMid meet"><path fill="#2e8c65" d="M25 13L13 13L13 1ZM25 13L25 1L37 1ZM25 37L37 37L37 49ZM25 37L25 49L13 49ZM13 25L1 25L1 13ZM37 25L37 13L49 13ZM37 25L49 25L49 37ZM13 25L13 37L1 37Z"/><path fill="#59c799" d="M3 7a4,4 0 1,1 8,0a4,4 0 1,1 -8,0M39 7a4,4 0 1,1 8,0a4,4 0 1,1 -8,0M39 43a4,4 0 1,1 8,0a4,4 0 1,1 -8,0M3 43a4,4 0 1,1 8,0a4,4 0 1,1 -8,0"/><path fill="#e3e3e3" d="M13 13L25 13L25 25L13 25ZM17 24L24 24L24 17L17 17ZM37 13L37 25L25 25L25 13ZM26 17L26 24L33 24L33 17ZM37 37L25 37L25 25L37 25ZM33 26L26 26L26 33L33 33ZM13 37L13 25L25 25L25 37ZM24 33L24 26L17 26L17 33Z"/></svg>