<svg xmlns="http://www.w3.org/2000/svg" viewBox="0 0 50 50" preserveAspectRatio="xMidYMid meet"><path fill="#32995e" d="M25 13L13 13L13 1ZM25 13L25 1L37 1ZM25 37L37 37L37 49ZM25 37L25 49L13 49ZM13 25L1 25L1 13ZM37 25L37 13L49 13ZM37 25L49 25L49 37ZM13 25L13 37L1 37Z"/><path fill="#66cc91" d="M3 7a4,4 0 1,1 8,0a4,4 0 1,1 -8,0M39 7a4,4 0 1,1 8,0a4,4 0 1,1 -8,0M39 43a4,4 0 1,1 8,0a4,4 0 1,1 -8,0M3 43a4,4 0 1,1 8,0a4,4 0 1,1 -8,0"/><path fill="#b2e5c8" d="M25 19L25 25L19 25ZM31 25L25 25L25 19ZM25 31L25 25L31 25ZM19 25L25 25L25 31Z"/></svg>