<svg xmlns="http://www.w3.org/2000/svg" viewBox="0 0 50 50" preserveAspectRatio="xMidYMid meet"><path fill="#8638a8" d="M13 13L13 1L19 1ZM25 1L37 1L37 7ZM37 37L37 49L31 49ZM25 49L13 49L13 43ZM1 25L1 13L7 13ZM37 13L49 13L49 19ZM49 25L49 37L43 37ZM13 37L1 37L1 31Z"/><path fill="#b575d1" d="M3 7a4,4 0 1,1 8,0a4,4 0 1,1 -8,0M39 7a4,4 0 1,1 8,0a4,4 0 1,1 -8,0M39 43a4,4 0 1,1 8,0a4,4 0 1,1 -8,0M3 43a4,4 0 1,1 8,0a4,4 0 1,1 -8,0M16 16L24 16L24 24L16 24ZM34 16L34 24L26 24L26 16ZM34 34L26 34L26 26L34 26ZM16 34L16 26L24 26L24 34Z"/></svg>