<svg xmlns="http://www.w3.org/2000/svg" viewBox="0 0 50 50" preserveAspectRatio="xMidYMid meet"><path fill="#e8cdba" d="M15 7a4,4 0 1,1 8,0a4,4 0 1,1 -8,0M27 7a4,4 0 1,1 8,0a4,4 0 1,1 -8,0M27 43a4,4 0 1,1 8,0a4,4 0 1,1 -8,0M15 43a4,4 0 1,1 8,0a4,4 0 1,1 -8,0M3 19a4,4 0 1,1 8,0a4,4 0 1,1 -8,0M39 19a4,4 0 1,1 8,0a4,4 0 1,1 -8,0M39 31a4,4 0 1,1 8,0a4,4 0 1,1 -8,0M3 31a4,4 0 1,1 8,0a4,4 0 1,1 -8,0"/><path fill="#d19c75" d="M13 7L7 13L1 7L7 1ZM43 13L37 7L43 1L49 7ZM37 43L43 37L49 43L43 49ZM7 37L13 43L7 49L1 43ZM13 13L25 13L25 14.9L20 25L13 25ZM37 13L37 25L35.1 25L25 20L25 13ZM37 37L25 37L25 35.1L30 25L37 25ZM13 37L13 25L14.9 25L25 30L25 37Z"/></svg>