<svg xmlns="http://www.w3.org/2000/svg" viewBox="0 0 50 50" preserveAspectRatio="xMidYMid meet"><path fill="#4c4c4c" d="M15 7a4,4 0 1,1 8,0a4,4 0 1,1 -8,0M27 7a4,4 0 1,1 8,0a4,4 0 1,1 -8,0M27 43a4,4 0 1,1 8,0a4,4 0 1,1 -8,0M15 43a4,4 0 1,1 8,0a4,4 0 1,1 -8,0M3 19a4,4 0 1,1 8,0a4,4 0 1,1 -8,0M39 19a4,4 0 1,1 8,0a4,4 0 1,1 -8,0M39 31a4,4 0 1,1 8,0a4,4 0 1,1 -8,0M3 31a4,4 0 1,1 8,0a4,4 0 1,1 -8,0"/><path fill="#66cc89" d="M1 13L1 1L7 1ZM37 1L49 1L49 7ZM49 37L49 49L43 49ZM13 49L1 49L1 43Z"/><path fill="#e5e5e5" d="M13 13L25 13L25 25L13 25ZM20.4 23.8L23.8 17L17 17ZM37 13L37 25L25 25L25 13ZM26.2 20.4L33 23.8L33 17ZM37 37L25 37L25 25L37 25ZM29.6 26.2L26.2 33L33 33ZM13 37L13 25L25 25L25 37ZM23.8 29.6L17 26.2L17 33Z"/></svg>