<svg xmlns="http://www.w3.org/2000/svg" viewBox="0 0 50 50" preserveAspectRatio="xMidYMid meet"><path fill="#e5e5e5" d="M25 7L19 13L13 7L19 1ZM31 13L25 7L31 1L37 7ZM25 43L31 37L37 43L31 49ZM19 37L25 43L19 49L13 43ZM13 19L7 25L1 19L7 13ZM43 25L37 19L43 13L49 19ZM37 31L43 25L49 31L43 37ZM7 25L13 31L7 37L1 31Z"/><path fill="#4c4c4c" d="M13 7L7 13L1 7L7 1ZM43 13L37 7L43 1L49 7ZM37 43L43 37L49 43L43 49ZM7 37L13 43L7 49L1 43Z"/><path fill="#66cc73" d="M13 13L25 13L25 25L13 25ZM17.3 20.4a3.1,3.1 0 1,0 6.2,0a3.1,3.1 0 1,0 -6.2,0M37 13L37 25L25 25L25 13ZM26.4 20.4a3.1,3.1 0 1,0 6.2,0a3.1,3.1 0 1,0 -6.2,0M37 37L25 37L25 25L37 25ZM26.4 29.6a3.1,3.1 0 1,0 6.2,0a3.1,3.1 0 1,0 -6.2,0M13 37L13 25L25 25L25 37ZM17.3 29.6a3.1,3.1 0 1,0 6.2,0a3.1,3.1 0 1,0 -6.2,0"/></svg>