<svg xmlns="http://www.w3.org/2000/svg" viewBox="0 0 50 50" preserveAspectRatio="xMidYMid meet"><path fill="#eaeaea" d="M13 1L25 1L25 13ZM37 1L37 13L25 13ZM37 49L25 49L25 37ZM13 49L13 37L25 37ZM1 13L13 13L13 25ZM49 13L49 25L37 25ZM49 37L37 37L37 25ZM1 37L1 25L13 25Z"/><path fill="#a884d6" d="M1 13L1 1L7 1ZM37 1L49 1L49 7ZM49 37L49 49L43 49ZM13 49L1 49L1 43ZM13 13L25 13L25 25L13 25ZM17 24L24 24L24 17L17 17ZM37 13L37 25L25 25L25 13ZM26 17L26 24L33 24L33 17ZM37 37L25 37L25 25L37 25ZM33 26L26 26L26 33L33 33ZM13 37L13 25L25 25L25 37ZM24 33L24 26L17 26L17 33Z"/></svg>