<svg xmlns="http://www.w3.org/2000/svg" viewBox="0 0 50 50" preserveAspectRatio="xMidYMid meet"><path fill="#a8384d" d="M25 13L13 13L13 7ZM25 13L25 1L31 1ZM25 37L37 37L37 43ZM25 37L25 49L19 49ZM13 25L1 25L1 19ZM37 25L37 13L43 13ZM37 25L49 25L49 31ZM13 25L13 37L7 37Z"/><path fill="#d17586" d="M1 13L1 1L13 1ZM37 1L49 1L49 13ZM49 37L49 49L37 49ZM13 49L1 49L1 37Z"/><path fill="#e8bac2" d="M18 21a3,3 0 1,1 6,0a3,3 0 1,1 -6,0M26 21a3,3 0 1,1 6,0a3,3 0 1,1 -6,0M26 29a3,3 0 1,1 6,0a3,3 0 1,1 -6,0M18 29a3,3 0 1,1 6,0a3,3 0 1,1 -6,0"/></svg>