<svg xmlns="http://www.w3.org/2000/svg" viewBox="0 0 50 50" preserveAspectRatio="xMidYMid meet"><path fill="#b2e5c6" d="M13 1L25 1L25 7ZM37 1L37 13L31 13ZM37 49L25 49L25 43ZM13 49L13 37L19 37ZM1 13L13 13L13 19ZM49 13L49 25L43 25ZM49 37L37 37L37 31ZM1 37L1 25L7 25Z"/><path fill="#66cc8d" d="M1 13L1 1L13 1ZM37 1L49 1L49 13ZM49 37L49 49L37 49ZM13 49L1 49L1 37Z"/><path fill="#4c4c4c" d="M13 13L25 13L25 25L13 25ZM17 24L24 24L24 17L17 17ZM37 13L37 25L25 25L25 13ZM26 17L26 24L33 24L33 17ZM37 37L25 37L25 25L37 25ZM33 26L26 26L26 33L33 33ZM13 37L13 25L25 25L25 37ZM24 33L24 26L17 26L17 33Z"/></svg>