<svg xmlns="http://www.w3.org/2000/svg" viewBox="0 0 50 50" preserveAspectRatio="xMidYMid meet"><path fill="#8984d6" d="M19 13L13 7L19 1L25 7ZM25 7L31 1L37 7L31 13ZM31 37L37 43L31 49L25 43ZM25 43L19 49L13 43L19 37ZM7 25L1 19L7 13L13 19ZM37 19L43 13L49 19L43 25ZM43 25L49 31L43 37L37 31ZM13 31L7 37L1 31L7 25Z"/><path fill="#c4c1ea" d="M3 7a4,4 0 1,1 8,0a4,4 0 1,1 -8,0M39 7a4,4 0 1,1 8,0a4,4 0 1,1 -8,0M39 43a4,4 0 1,1 8,0a4,4 0 1,1 -8,0M3 43a4,4 0 1,1 8,0a4,4 0 1,1 -8,0"/><path fill="#5b5b5b" d="M25 19L25 25L19 25ZM31 25L25 25L25 19ZM25 31L25 25L31 25ZM19 25L25 25L25 31Z"/></svg>